<svg width="133" height="133" viewBox="0 0 133 133" fill="none" xmlns="http://www.w3.org/2000/svg">
<g filter="url(#filter0_d_276_1578)">
<mask id="path-1-inside-1_276_1578" fill="white">
<path d="M64.5469 0.135489C63.375 0.428457 61.8613 1.30736 61.0557 2.11303C59.8838 3.26049 57.7598 6.97143 57.7598 7.8015C57.7598 8.28979 57.9795 8.72924 58.4189 9.11986C59.7129 10.2185 60.543 9.73022 62.1299 6.97143C63.3506 4.8474 64.0342 4.21264 65.4258 3.77318C66.6221 3.43139 68.0381 3.7976 69.0635 4.74975C69.6982 5.3601 102.438 61.8054 102.999 63.2703C103.414 64.3445 103.268 65.614 102.633 66.6882C101.485 68.6658 104.513 68.5193 66.3291 68.5193C33.6631 68.5193 32.2715 68.4949 31.4658 68.0554C30.3428 67.4695 29.5127 66.029 29.5127 64.5886C29.5127 63.5632 30.5381 61.7078 43.3066 39.5642C52.4619 23.7195 57.1006 15.4431 57.1006 15.0037C57.1006 14.0759 56.3193 13.3435 55.3184 13.3435C54.3418 13.3435 53.8291 13.8562 52.6816 15.9558L51.8516 17.4695L30.8555 17.5427L9.85938 17.616L8.73633 18.1775C6.90527 19.0808 5.68457 20.3015 4.80566 22.0837L4 23.7195V61.6833V99.6472L4.70801 101.185C5.58691 103.065 7.27148 104.677 9.15137 105.36C10.4697 105.873 10.9092 105.873 31.5879 105.873C48.4824 105.873 52.7061 105.946 52.7061 106.19C52.7061 108.802 51.9248 117.421 51.4365 119.862L51.168 121.254H47.7012C44.6494 121.254 44.1367 121.302 43.6484 121.718C42.8672 122.352 42.8672 123.817 43.6484 124.452C44.1855 124.891 45.0889 124.916 66.3779 124.916C87.667 124.916 88.5703 124.891 89.1074 124.452C89.8887 123.817 89.8887 122.352 89.1074 121.718C88.6191 121.302 88.1064 121.254 85.0547 121.254H81.5879L81.3193 119.862C80.8311 117.421 80.0498 108.802 80.0498 106.19C80.0498 105.946 84.2734 105.873 101.168 105.873C121.847 105.873 122.286 105.873 123.604 105.36C125.484 104.677 127.169 103.065 128.048 101.185L128.756 99.6472V61.6833V23.7195L127.95 22.0837C127.071 20.3015 125.851 19.0808 124.02 18.1775L122.896 17.616L101.9 17.5427L80.9043 17.4695L78.2432 12.782C72.2861 2.33275 71.8223 1.67357 69.625 0.648184C68.4043 0.0866604 65.7676 -0.181894 64.5469 0.135489ZM44.5273 29.8718C44.4541 30.116 40.4014 37.1716 35.5674 45.5456C30.7334 53.9441 26.5586 61.2439 26.3145 61.781C25.6309 63.2947 25.6797 66.0779 26.4365 67.6892C27.2422 69.447 28.585 70.8142 30.1963 71.6199L31.5879 72.3035H66.3779H101.168L102.56 71.6199C104.171 70.8142 105.514 69.447 106.319 67.6892C107.076 66.0779 107.125 63.2947 106.441 61.781C106.197 61.2439 102.022 53.9441 97.1885 45.5456C92.3545 37.1716 88.3018 30.116 88.2285 29.8718C88.0576 29.4812 88.8389 29.4568 102.267 29.4568C111.568 29.4568 116.622 29.5544 116.939 29.7009C117.403 29.9451 117.403 30.531 117.403 58.2654V86.5857H105.929C94.7715 86.5857 94.4297 86.6101 93.9658 87.074C93.2334 87.8064 93.3066 89.1003 94.1123 89.7351C94.7471 90.2478 94.9668 90.2478 110.006 90.2478H125.265L125.167 94.7156C125.094 99.1589 125.094 99.2078 124.41 100.233C123.971 100.892 123.336 101.454 122.701 101.747C121.7 102.186 120.162 102.211 66.3047 102.211C11.2266 102.211 10.9336 102.211 9.98145 101.722C9.44434 101.454 8.71191 100.77 8.3457 100.209C7.66211 99.2078 7.66211 99.1345 7.58887 94.7156L7.49121 90.2478H47.2861C84.8105 90.2478 87.1055 90.2234 87.5938 89.8083C87.8623 89.5886 88.1797 89.0515 88.2529 88.6121C88.375 87.9773 88.2773 87.7087 87.7891 87.2205L87.1543 86.5857H51.2412H15.3525V58.2654C15.3525 31.5808 15.377 29.9451 15.792 29.7253C16.0605 29.5544 21.2363 29.4812 30.4648 29.4568C43.917 29.4568 44.6982 29.4812 44.5273 29.8718ZM76.3877 106.776C76.3877 109.828 77.3643 119.862 77.7549 120.863C77.9014 121.205 76.8027 121.254 66.3779 121.254C56.002 121.254 54.8545 121.205 55.001 120.863C55.2939 120.131 55.8555 114.955 56.1484 110.438L56.4414 105.873H66.4268H76.3877V106.776Z"/>
</mask>
<path d="M64.5469 0.135489C63.375 0.428457 61.8613 1.30736 61.0557 2.11303C59.8838 3.26049 57.7598 6.97143 57.7598 7.8015C57.7598 8.28979 57.9795 8.72924 58.4189 9.11986C59.7129 10.2185 60.543 9.73022 62.1299 6.97143C63.3506 4.8474 64.0342 4.21264 65.4258 3.77318C66.6221 3.43139 68.0381 3.7976 69.0635 4.74975C69.6982 5.3601 102.438 61.8054 102.999 63.2703C103.414 64.3445 103.268 65.614 102.633 66.6882C101.485 68.6658 104.513 68.5193 66.3291 68.5193C33.6631 68.5193 32.2715 68.4949 31.4658 68.0554C30.3428 67.4695 29.5127 66.029 29.5127 64.5886C29.5127 63.5632 30.5381 61.7078 43.3066 39.5642C52.4619 23.7195 57.1006 15.4431 57.1006 15.0037C57.1006 14.0759 56.3193 13.3435 55.3184 13.3435C54.3418 13.3435 53.8291 13.8562 52.6816 15.9558L51.8516 17.4695L30.8555 17.5427L9.85938 17.616L8.73633 18.1775C6.90527 19.0808 5.68457 20.3015 4.80566 22.0837L4 23.7195V61.6833V99.6472L4.70801 101.185C5.58691 103.065 7.27148 104.677 9.15137 105.36C10.4697 105.873 10.9092 105.873 31.5879 105.873C48.4824 105.873 52.7061 105.946 52.7061 106.19C52.7061 108.802 51.9248 117.421 51.4365 119.862L51.168 121.254H47.7012C44.6494 121.254 44.1367 121.302 43.6484 121.718C42.8672 122.352 42.8672 123.817 43.6484 124.452C44.1855 124.891 45.0889 124.916 66.3779 124.916C87.667 124.916 88.5703 124.891 89.1074 124.452C89.8887 123.817 89.8887 122.352 89.1074 121.718C88.6191 121.302 88.1064 121.254 85.0547 121.254H81.5879L81.3193 119.862C80.8311 117.421 80.0498 108.802 80.0498 106.19C80.0498 105.946 84.2734 105.873 101.168 105.873C121.847 105.873 122.286 105.873 123.604 105.36C125.484 104.677 127.169 103.065 128.048 101.185L128.756 99.6472V61.6833V23.7195L127.95 22.0837C127.071 20.3015 125.851 19.0808 124.02 18.1775L122.896 17.616L101.9 17.5427L80.9043 17.4695L78.2432 12.782C72.2861 2.33275 71.8223 1.67357 69.625 0.648184C68.4043 0.0866604 65.7676 -0.181894 64.5469 0.135489ZM44.5273 29.8718C44.4541 30.116 40.4014 37.1716 35.5674 45.5456C30.7334 53.9441 26.5586 61.2439 26.3145 61.781C25.6309 63.2947 25.6797 66.0779 26.4365 67.6892C27.2422 69.447 28.585 70.8142 30.1963 71.6199L31.5879 72.3035H66.3779H101.168L102.56 71.6199C104.171 70.8142 105.514 69.447 106.319 67.6892C107.076 66.0779 107.125 63.2947 106.441 61.781C106.197 61.2439 102.022 53.9441 97.1885 45.5456C92.3545 37.1716 88.3018 30.116 88.2285 29.8718C88.0576 29.4812 88.8389 29.4568 102.267 29.4568C111.568 29.4568 116.622 29.5544 116.939 29.7009C117.403 29.9451 117.403 30.531 117.403 58.2654V86.5857H105.929C94.7715 86.5857 94.4297 86.6101 93.9658 87.074C93.2334 87.8064 93.3066 89.1003 94.1123 89.7351C94.7471 90.2478 94.9668 90.2478 110.006 90.2478H125.265L125.167 94.7156C125.094 99.1589 125.094 99.2078 124.41 100.233C123.971 100.892 123.336 101.454 122.701 101.747C121.7 102.186 120.162 102.211 66.3047 102.211C11.2266 102.211 10.9336 102.211 9.98145 101.722C9.44434 101.454 8.71191 100.77 8.3457 100.209C7.66211 99.2078 7.66211 99.1345 7.58887 94.7156L7.49121 90.2478H47.2861C84.8105 90.2478 87.1055 90.2234 87.5938 89.8083C87.8623 89.5886 88.1797 89.0515 88.2529 88.6121C88.375 87.9773 88.2773 87.7087 87.7891 87.2205L87.1543 86.5857H51.2412H15.3525V58.2654C15.3525 31.5808 15.377 29.9451 15.792 29.7253C16.0605 29.5544 21.2363 29.4812 30.4648 29.4568C43.917 29.4568 44.6982 29.4812 44.5273 29.8718ZM76.3877 106.776C76.3877 109.828 77.3643 119.862 77.7549 120.863C77.9014 121.205 76.8027 121.254 66.3779 121.254C56.002 121.254 54.8545 121.205 55.001 120.863C55.2939 120.131 55.8555 114.955 56.1484 110.438L56.4414 105.873H66.4268H76.3877V106.776Z" fill="black" stroke="white" stroke-width="14" mask="url(#path-1-inside-1_276_1578)"/>
<mask id="path-2-inside-2_276_1578" fill="white">
<path d="M61.2998 94.5691C61.1289 94.6423 60.8359 95.0085 60.6162 95.4236C60.2988 96.0339 60.2988 96.2781 60.543 96.864C60.6895 97.279 61.0312 97.6941 61.2754 97.8161C61.7393 98.0847 70.7236 98.1579 71.3828 97.9138C71.5781 97.8161 71.9443 97.4255 72.1396 97.0349C72.457 96.4245 72.457 96.1804 72.2129 95.5945C72.0664 95.1794 71.7246 94.7644 71.4805 94.6423C71.041 94.3982 61.8857 94.3249 61.2998 94.5691Z"/>
</mask>
<path d="M61.2998 94.5691C61.1289 94.6423 60.8359 95.0085 60.6162 95.4236C60.2988 96.0339 60.2988 96.2781 60.543 96.864C60.6895 97.279 61.0312 97.6941 61.2754 97.8161C61.7393 98.0847 70.7236 98.1579 71.3828 97.9138C71.5781 97.8161 71.9443 97.4255 72.1396 97.0349C72.457 96.4245 72.457 96.1804 72.2129 95.5945C72.0664 95.1794 71.7246 94.7644 71.4805 94.6423C71.041 94.3982 61.8857 94.3249 61.2998 94.5691Z" fill="black"/>
<path d="M61.2998 94.5691L58.5424 88.1351L58.5749 88.1211L58.6075 88.1075L61.2998 94.5691ZM60.6162 95.4236L54.4057 92.1941L54.4176 92.1712L54.4297 92.1483L60.6162 95.4236ZM60.543 96.864L67.0045 94.1717L67.0792 94.351L67.1439 94.5343L60.543 96.864ZM61.2754 97.8161L64.4059 91.5551L64.5974 91.6509L64.7826 91.7582L61.2754 97.8161ZM71.3828 97.9138L74.5133 104.175L74.1719 104.345L73.814 104.478L71.3828 97.9138ZM72.1396 97.0349L65.8787 93.9044L65.9035 93.8547L65.9291 93.8054L72.1396 97.0349ZM72.2129 95.5945L65.7513 98.2868L65.6766 98.1074L65.612 97.9242L72.2129 95.5945ZM71.4805 94.6423L68.35 100.903L68.2139 100.835L68.081 100.761L71.4805 94.6423ZM64.0572 101.003C64.6401 100.753 65.0669 100.473 65.3176 100.293C65.5841 100.101 65.7861 99.9246 65.9204 99.7996C66.183 99.5553 66.3556 99.3495 66.4424 99.241C66.6182 99.0213 66.726 98.8437 66.8027 98.6988L54.4297 92.1483C54.7261 91.5884 55.0903 91.0201 55.5102 90.4953C55.7191 90.2342 56.0107 89.8972 56.3832 89.5506C56.664 89.2893 57.4092 88.6207 58.5424 88.1351L64.0572 101.003ZM66.8267 98.653C66.8291 98.6485 66.8549 98.5989 66.892 98.5167C66.9294 98.4339 66.9882 98.296 67.0512 98.1142C67.1844 97.7296 67.3318 97.1604 67.3624 96.457C67.3932 95.7487 67.2945 95.1576 67.1884 94.7427C67.1388 94.5489 67.0895 94.4009 67.0582 94.313C67.0273 94.226 67.0052 94.1733 67.0045 94.1717L54.0814 99.5563C53.8854 99.0857 53.2961 97.6789 53.3756 95.8489C53.4541 94.0432 54.1438 92.6977 54.4057 92.1941L66.8267 98.653ZM67.1439 94.5343C66.9182 93.8948 66.6238 93.4395 66.3768 93.1252C66.2395 92.9505 66.0496 92.7336 65.793 92.4999C65.5711 92.2977 65.1078 91.9061 64.4059 91.5551L58.1449 104.077C56.6878 103.349 55.7788 102.297 55.3683 101.775C54.8528 101.119 54.3142 100.248 53.942 99.1937L67.1439 94.5343ZM64.7826 91.7582C64.3074 91.483 63.901 91.3243 63.6828 91.2454C63.4413 91.1581 63.2417 91.1018 63.1141 91.0684C62.8652 91.0033 62.6779 90.9709 62.608 90.9593C62.4614 90.9348 62.3939 90.931 62.4672 90.9378C62.5922 90.9495 62.8534 90.9675 63.2687 90.9859C64.0757 91.0218 65.1743 91.0473 66.3185 91.0575C67.4609 91.0677 68.5776 91.0622 69.4178 91.0414C69.8464 91.0308 70.1414 91.0177 70.3083 91.0065C70.3976 91.0005 70.38 90.9996 70.2946 91.0103C70.2521 91.0156 70.1342 91.031 69.9709 91.0625C69.8615 91.0837 69.4582 91.1619 68.9516 91.3496L73.814 104.478C72.9286 104.806 72.1168 104.891 72.0369 104.901C71.7473 104.938 71.4686 104.96 71.2483 104.975C70.7959 105.005 70.2772 105.024 69.7635 105.037C68.7193 105.063 67.4373 105.068 66.1932 105.057C64.951 105.046 63.6752 105.018 62.6467 104.972C62.1441 104.95 61.6222 104.92 61.1645 104.877C60.9464 104.857 60.6377 104.824 60.3082 104.769C60.1469 104.742 59.8827 104.694 59.5726 104.613C59.3928 104.566 58.6239 104.37 57.7681 103.874L64.7826 91.7582ZM68.2523 91.6528C67.5468 92.0055 67.0971 92.391 66.9597 92.5106C66.7591 92.6852 66.615 92.8369 66.5183 92.9462C66.3511 93.1351 66.1113 93.4392 65.8787 93.9044L78.4006 100.165C77.9727 101.021 77.4521 101.716 77.0042 102.222C76.7164 102.548 75.8506 103.506 74.5133 104.175L68.2523 91.6528ZM65.9291 93.8054C65.9268 93.81 65.901 93.8595 65.8638 93.9418C65.8265 94.0246 65.7676 94.1624 65.7047 94.3442C65.5715 94.7289 65.424 95.2981 65.3934 96.0015C65.3626 96.7098 65.4613 97.3008 65.5675 97.7157C65.617 97.9095 65.6664 98.0575 65.6977 98.1455C65.7286 98.2324 65.7507 98.2851 65.7513 98.2868L78.6744 92.9022C78.8705 93.3727 79.4598 94.7795 79.3802 96.6096C79.3017 98.4153 78.6121 99.7607 78.3502 100.264L65.9291 93.8054ZM65.612 97.9242C65.8376 98.5636 66.1321 99.0189 66.3791 99.3333C66.5163 99.508 66.7063 99.7248 66.9629 99.9586C67.1848 100.161 67.648 100.552 68.35 100.903L74.611 88.3813C76.0681 89.1099 76.977 90.1613 77.3875 90.6838C77.9031 91.3399 78.4417 92.2103 78.8138 93.2647L65.612 97.9242ZM68.081 100.761C68.5806 101.039 69.0049 101.193 69.2155 101.264C69.4552 101.344 69.6516 101.396 69.7729 101.425C70.0104 101.482 70.1873 101.51 70.2479 101.519C70.3778 101.539 70.4311 101.541 70.3494 101.534C70.2077 101.522 69.9306 101.505 69.5054 101.488C68.6769 101.455 67.554 101.431 66.392 101.422C65.2304 101.414 64.0979 101.42 63.2506 101.441C62.8176 101.452 62.5241 101.465 62.3622 101.476C62.2739 101.482 62.302 101.482 62.4014 101.469C62.4498 101.463 62.5862 101.445 62.7731 101.407C62.8825 101.385 63.3806 101.285 63.9921 101.031L58.6075 88.1075C59.6287 87.682 60.5934 87.5867 60.6104 87.5845C60.9084 87.546 61.1938 87.5231 61.4128 87.5082C61.8654 87.4775 62.3867 87.4582 62.9013 87.4454C63.9491 87.4192 65.2428 87.4133 66.4981 87.4228C67.7531 87.4323 69.038 87.4578 70.0681 87.4992C70.5722 87.5195 71.087 87.5463 71.5323 87.5841C71.7442 87.6021 72.0398 87.6306 72.3524 87.6781C72.5043 87.7012 72.7577 87.7432 73.0556 87.8151C73.2023 87.8505 73.9967 88.0325 74.88 88.5232L68.081 100.761Z" fill="white" mask="url(#path-2-inside-2_276_1578)"/>
<path d="M64.0673 31.7247L64.0673 31.7252C64.0304 37.507 64.0197 40.3452 64.0743 41.8844C64.0983 42.5594 64.1317 42.8446 64.1487 42.9509C64.1525 42.9593 64.157 42.9691 64.1622 42.9806C64.8034 44.2431 66.3777 44.6892 67.3698 44.2245C67.7411 44.0223 68.4355 43.3606 68.7378 42.817C68.7529 42.689 68.776 42.4361 68.7954 41.9791C68.8584 40.4944 68.8594 37.7258 68.8594 32.0202C68.8594 26.3024 68.8584 23.5339 68.7954 22.0491C68.7803 21.6931 68.763 21.4533 68.7463 21.2898C68.7425 21.2523 68.7389 21.2209 68.7357 21.1948C68.1341 20.0698 67.0283 19.5337 65.8097 19.7367C65.4801 19.8118 64.7835 20.1882 64.2306 20.9554L64.1337 21.0942L64.0673 31.7247Z" fill="black" stroke="white" stroke-width="7"/>
<path d="M67.2547 54.6677L67.2411 54.6638L67.2277 54.6598C66.6835 54.4965 66.4492 54.4778 66.3199 54.4778C66.1951 54.4778 65.9738 54.495 65.4611 54.6505C65.0618 54.7784 64.5455 55.1229 64.1183 55.6909C63.6856 56.2662 63.5303 56.8211 63.5303 57.1667C63.5303 57.9595 63.6961 58.4679 63.8996 58.8185C64.1012 59.1659 64.4504 59.549 65.1112 59.9244C65.3332 60.0475 65.4593 60.1093 65.5372 60.1434C65.5733 60.1592 65.5939 60.1668 65.603 60.1699C65.6114 60.1728 65.6148 60.1737 65.6164 60.1741L65.6169 60.1742C65.6279 60.177 65.757 60.2097 66.3779 60.2097C66.9988 60.2097 67.1279 60.177 67.139 60.1742L67.1394 60.1741C67.1411 60.1737 67.1445 60.1728 67.1529 60.1699C67.162 60.1668 67.1826 60.1592 67.2187 60.1434C67.2966 60.1093 67.4226 60.0475 67.6447 59.9244C68.3055 59.549 68.6546 59.1659 68.8563 58.8185C69.0598 58.4679 69.2256 57.9595 69.2256 57.1667C69.2256 56.2412 68.3312 54.9813 67.2547 54.6677Z" fill="black" stroke="white" stroke-width="7"/>
</g>
<defs>
<filter id="filter0_d_276_1578" x="0" y="0" width="132.756" height="132.916" filterUnits="userSpaceOnUse" color-interpolation-filters="sRGB">
<feFlood flood-opacity="0" result="BackgroundImageFix"/>
<feColorMatrix in="SourceAlpha" type="matrix" values="0 0 0 0 0 0 0 0 0 0 0 0 0 0 0 0 0 0 127 0" result="hardAlpha"/>
<feOffset dy="4"/>
<feGaussianBlur stdDeviation="2"/>
<feComposite in2="hardAlpha" operator="out"/>
<feColorMatrix type="matrix" values="0 0 0 0 0 0 0 0 0 0 0 0 0 0 0 0 0 0 0.25 0"/>
<feBlend mode="normal" in2="BackgroundImageFix" result="effect1_dropShadow_276_1578"/>
<feBlend mode="normal" in="SourceGraphic" in2="effect1_dropShadow_276_1578" result="shape"/>
</filter>
</defs>
</svg>
