<svg width="81" height="40" viewBox="0 0 81 40" fill="none" xmlns="http://www.w3.org/2000/svg">
<rect width="81" height="40" rx="7" fill="#DC9F00"/>
<path d="M41 9C33.824 9 28 14.6 28 21.5C28 28.4 33.824 34 41 34C48.176 34 54 28.4 54 21.5C54 14.6 48.176 9 41 9ZM41 31.5C35.267 31.5 30.6 27.0125 30.6 21.5C30.6 15.9875 35.267 11.5 41 11.5C46.733 11.5 51.4 15.9875 51.4 21.5C51.4 27.0125 46.733 31.5 41 31.5ZM46.967 15.975L38.4 24.2125L35.033 20.9875L33.2 22.75L38.4 27.75L48.8 17.75L46.967 15.975Z" fill="white"/>
</svg>
