<svg width="41" height="64" viewBox="0 0 41 64" fill="none" xmlns="http://www.w3.org/2000/svg">
<g filter="url(#filter0_d_114_2807)">
<path d="M27.8169 48.4263C29.389 48.4263 30.6754 47.14 30.6754 45.5678L30.6275 8.45799C30.6275 6.88594 29.3412 5.59955 27.7691 5.59955H12.8584C11.2864 5.59955 10 6.88585 10 8.45799L10.0475 45.6155C10.0475 47.1875 11.3338 48.4739 12.906 48.4739L27.8169 48.4263ZM21.8622 7.69595C22.0051 7.69595 22.1004 7.79132 22.1004 7.93421C22.1004 8.0771 22.0051 8.17247 21.8622 8.17247H18.8134C18.6705 8.17247 18.5751 8.0771 18.5751 7.93421C18.5751 7.79132 18.6705 7.69595 18.8134 7.69595H21.8622ZM17.0031 7.88636C17.0031 7.69595 17.1459 7.50521 17.3842 7.50521C17.5746 7.50521 17.7653 7.69562 17.7653 7.88636C17.7653 8.07676 17.6225 8.2675 17.3842 8.2675C17.1459 8.2675 17.0031 8.12462 17.0031 7.88636ZM12.2393 43.8529C11.5248 43.8529 10.953 43.2813 10.953 42.5666V11.5067C10.953 10.7923 11.5245 10.2204 12.2393 10.2204H28.4361C29.1506 10.2204 29.7224 10.792 29.7224 11.5067V42.5666C29.7224 43.281 29.1509 43.8529 28.4361 43.8529H12.2393Z" fill="white"/>
<path d="M23.077 23.6129V22.2431H22.3921V23.6129H23.077ZM24.4467 23.6129V22.2431H23.7619V23.6129H24.4467ZM24.4467 31.1457H25.1316V30.4608H24.4467V31.1457ZM23.7619 27.0368H24.4467V26.352H23.7619V27.0368ZM23.7619 24.9826H23.077V25.6675H24.4467V24.2977H23.7619L23.7619 24.9826ZM24.4467 24.2978H25.1316V23.6129H24.4467V24.2978ZM24.4467 25.6672V26.352H25.1316V25.6672H24.4467ZM23.077 27.0369V27.7218H23.7618V27.0369H23.077ZM24.4467 31.1458H23.7619V31.8306H24.4467V31.1458ZM23.077 24.2978H22.3921V24.9827H23.077V24.2978ZM22.3921 24.9827H21.7076V25.6676H22.3924L22.3921 24.9827ZM23.7619 23.613H23.077V24.2978H23.7619V23.613ZM24.4467 27.7218H25.1316V27.0369H24.4467V27.7218ZM23.077 29.0912V28.4067H22.3921V29.7764H23.7619V29.0916L23.077 29.0912ZM23.7618 27.7218V28.4067H24.4467V27.7218H23.7618ZM19.7267 22.1694H15.4704V26.4258H19.7267V22.1694ZM19.2133 25.9124H15.9841V22.6832H19.2133V25.9124ZM18.2835 30.4609V31.1457H18.9684V30.4609H18.2835ZM21.0226 29.0911H20.3378V29.776H18.968V30.4609H20.3378V31.1457H21.0226V29.0911ZM28.4361 10.7923H12.2392C11.8581 10.7923 11.5248 11.1256 11.5248 11.5067V42.5665C11.5248 42.9477 11.8584 43.281 12.2392 43.281H28.4361C28.8172 43.281 29.1505 42.9477 29.1505 42.5665L29.1509 11.5067C29.1509 11.1255 28.8172 10.7919 28.4361 10.7919V10.7923ZM13.0014 12.6501C13.0014 12.4597 13.1919 12.269 13.3823 12.269H16.9551C17.1455 12.269 17.3362 12.4594 17.3362 12.6501C17.3838 12.8884 17.1933 13.0313 16.9551 13.0313H13.7634V16.223C13.7634 16.4134 13.573 16.6042 13.3822 16.6042C13.1918 16.6042 13.0011 16.4138 13.0011 16.223L13.0014 12.6501ZM20.3375 21.5584V27.0366H14.8593V21.5584H20.3375ZM16.955 41.8045H13.3822C13.1918 41.8045 13.0014 41.6137 13.0014 41.4233V37.8505C13.0014 37.6601 13.1918 37.4693 13.3825 37.4693C13.5729 37.4693 13.7637 37.6597 13.7637 37.8505V41.0422H16.9554C17.1458 41.0422 17.3366 41.2326 17.3366 41.4234C17.3841 41.6138 17.1933 41.8045 16.9551 41.8045L16.955 41.8045ZM23.0766 32.5151H21.7068V31.8302H21.022L21.0223 32.5151H19.6525V31.8302L20.3374 31.8306V31.1457H18.9676V32.5151H18.2828V31.8303L17.5983 31.8306V32.5151H14.8592V31.8303H16.2289L16.2286 31.1457H14.8592V29.776H17.5983V29.0911H16.9134V28.4066H16.2285V29.0914L14.8591 29.0911V27.7214H15.544V28.4062H16.2288V27.7214H17.5986V28.4062H18.2835V27.7214H18.9683V28.4062H19.6532V27.7214L20.3374 27.7217V28.4065H21.0222V26.3523H21.7071V25.6671H21.0222V24.2977H21.7071V23.6129H21.0222V22.928H21.7071V22.2431H21.0222V21.5586H21.7071V22.2435H22.392L22.3916 21.5586H23.0765V22.2435H23.7614V21.5586H24.4462V22.2435H25.1311V21.5586H25.8156V22.9284H25.1308V23.6132L25.8156 23.6129V24.2978H25.1308V24.9826H25.8156V26.3524H25.1308L25.1311 27.0369H25.8156V27.7218H25.1308V28.4066H25.8156V29.7764H25.1308V30.4613L25.8156 30.4609V31.1458H25.1308V31.8306H25.8156V32.5152H23.7614V31.8303L23.0765 31.8306L23.0766 32.5151ZM27.2927 41.8045H23.6721C23.4816 41.8045 23.2909 41.6141 23.2909 41.4233C23.2909 41.2329 23.4813 41.0422 23.6721 41.0422H26.8638V37.8504C26.8638 37.66 27.0542 37.4693 27.2449 37.4693C27.4353 37.4693 27.6261 37.6597 27.6261 37.8504V41.4233H27.6736C27.6736 41.6137 27.4832 41.8044 27.2928 41.8044L27.2927 41.8045ZM27.2927 16.6041C27.1023 16.6041 26.9116 16.4137 26.9116 16.2229V13.0312H23.672C23.4816 13.0312 23.2909 12.8408 23.2909 12.6501C23.2909 12.4596 23.4816 12.2689 23.672 12.2689H27.2448C27.4353 12.2689 27.626 12.4593 27.626 12.6501V16.2229H27.6735C27.6735 16.4136 27.4831 16.604 27.2927 16.604V16.6041ZM22.3917 25.6672V27.0369H23.0766V25.6672H22.3917ZM22.3917 30.4609V31.1457H21.7072V31.8306H23.0769V30.4609L22.3917 30.4609ZM23.7615 29.776V30.4609H24.4463V29.776H23.7615ZM18.2833 30.4609V29.776H17.5984V30.4609H18.2833ZM24.4463 29.776H25.1312V28.4063L24.4463 28.4066V29.776ZM18.9678 29.776V28.4063H18.283V29.776H18.9678ZM16.9136 30.4609V31.8306H17.5985V30.4609H16.9136ZM21.7073 27.7218H22.3922L22.3919 27.0369H21.7073L21.7073 27.7218ZM21.7073 29.0912V28.4067H21.0225V29.0915L21.7073 29.0912ZM21.7073 30.461H22.3922L22.3919 29.7761H21.7073L21.7073 30.461Z" fill="white"/>
</g>
<defs>
<filter id="filter0_d_114_2807" x="0" y="0.599548" width="40.6754" height="62.8743" filterUnits="userSpaceOnUse" color-interpolation-filters="sRGB">
<feFlood flood-opacity="0" result="BackgroundImageFix"/>
<feColorMatrix in="SourceAlpha" type="matrix" values="0 0 0 0 0 0 0 0 0 0 0 0 0 0 0 0 0 0 127 0" result="hardAlpha"/>
<feOffset dy="5"/>
<feGaussianBlur stdDeviation="5"/>
<feComposite in2="hardAlpha" operator="out"/>
<feColorMatrix type="matrix" values="0 0 0 0 0 0 0 0 0 0 0 0 0 0 0 0 0 0 0.25 0"/>
<feBlend mode="normal" in2="BackgroundImageFix" result="effect1_dropShadow_114_2807"/>
<feBlend mode="normal" in="SourceGraphic" in2="effect1_dropShadow_114_2807" result="shape"/>
</filter>
</defs>
</svg>
